<svg xmlns="http://www.w3.org/2000/svg" width="805" height="600"><rect width="805" height="600" x="0" y="0" fill="#FFFFFF" id="background" data-darkreader-inline-fill="" style="--darkreader-inline-fill: #000000;"/><g transform="translate(50,10)" id="viz"><g id="y axis" fill="none" font-size="10" font-family="sans-serif" text-anchor="end"><path class="domain" stroke="currentColor" d="M-6,560H0V0H-6" data-darkreader-inline-stroke="" style="--darkreader-inline-stroke: currentColor;"/><g class="tick" opacity="1" transform="translate(0,560)"><line stroke="currentColor" x2="-6" data-darkreader-inline-stroke="" style="--darkreader-inline-stroke: currentColor;"/><text fill="currentColor" x="-9" dy="0.32em" data-darkreader-inline-fill="" style="--darkreader-inline-fill: currentColor;">0</text></g><g class="tick" opacity="1" transform="translate(0,509.09090909090907)"><line stroke="currentColor" x2="-6" data-darkreader-inline-stroke="" style="--darkreader-inline-stroke: currentColor;"/><text fill="currentColor" x="-9" dy="0.32em" data-darkreader-inline-fill="" style="--darkreader-inline-fill: currentColor;">2</text></g><g class="tick" opacity="1" transform="translate(0,458.18181818181813)"><line stroke="currentColor" x2="-6" data-darkreader-inline-stroke="" style="--darkreader-inline-stroke: currentColor;"/><text fill="currentColor" x="-9" dy="0.32em" data-darkreader-inline-fill="" style="--darkreader-inline-fill: currentColor;">4</text></g><g class="tick" opacity="1" transform="translate(0,407.2727272727273)"><line stroke="currentColor" x2="-6" data-darkreader-inline-stroke="" style="--darkreader-inline-stroke: currentColor;"/><text fill="currentColor" x="-9" dy="0.32em" data-darkreader-inline-fill="" style="--darkreader-inline-fill: currentColor;">6</text></g><g class="tick" opacity="1" transform="translate(0,356.3636363636364)"><line stroke="currentColor" x2="-6" data-darkreader-inline-stroke="" style="--darkreader-inline-stroke: currentColor;"/><text fill="currentColor" x="-9" dy="0.32em" data-darkreader-inline-fill="" style="--darkreader-inline-fill: currentColor;">8</text></g><g class="tick" opacity="1" transform="translate(0,305.45454545454544)"><line stroke="currentColor" x2="-6" data-darkreader-inline-stroke="" style="--darkreader-inline-stroke: currentColor;"/><text fill="currentColor" x="-9" dy="0.32em" data-darkreader-inline-fill="" style="--darkreader-inline-fill: currentColor;">10</text></g><g class="tick" opacity="1" transform="translate(0,254.54545454545456)"><line stroke="currentColor" x2="-6" data-darkreader-inline-stroke="" style="--darkreader-inline-stroke: currentColor;"/><text fill="currentColor" x="-9" dy="0.32em" data-darkreader-inline-fill="" style="--darkreader-inline-fill: currentColor;">12</text></g><g class="tick" opacity="1" transform="translate(0,203.63636363636365)"><line stroke="currentColor" x2="-6" data-darkreader-inline-stroke="" style="--darkreader-inline-stroke: currentColor;"/><text fill="currentColor" x="-9" dy="0.32em" data-darkreader-inline-fill="" style="--darkreader-inline-fill: currentColor;">14</text></g><g class="tick" opacity="1" transform="translate(0,152.72727272727272)"><line stroke="currentColor" x2="-6" data-darkreader-inline-stroke="" style="--darkreader-inline-stroke: currentColor;"/><text fill="currentColor" x="-9" dy="0.32em" data-darkreader-inline-fill="" style="--darkreader-inline-fill: currentColor;">16</text></g><g class="tick" opacity="1" transform="translate(0,101.81818181818178)"><line stroke="currentColor" x2="-6" data-darkreader-inline-stroke="" style="--darkreader-inline-stroke: currentColor;"/><text fill="currentColor" x="-9" dy="0.32em" data-darkreader-inline-fill="" style="--darkreader-inline-fill: currentColor;">18</text></g><g class="tick" opacity="1" transform="translate(0,50.90909090909093)"><line stroke="currentColor" x2="-6" data-darkreader-inline-stroke="" style="--darkreader-inline-stroke: currentColor;"/><text fill="currentColor" x="-9" dy="0.32em" data-darkreader-inline-fill="" style="--darkreader-inline-fill: currentColor;">20</text></g><g class="tick" opacity="1" transform="translate(0,0)"><line stroke="currentColor" x2="-6" data-darkreader-inline-stroke="" style="--darkreader-inline-stroke: currentColor;"/><text fill="currentColor" x="-9" dy="0.32em" data-darkreader-inline-fill="" style="--darkreader-inline-fill: currentColor;">22</text></g><text x="4" text-anchor="start" dominant-baseline="hanging" style="font-family: Arial, sans-serif; font-size: 12px; fill: rgb(123, 123, 123); font-weight: bold; --darkreader-inline-fill: #8d8475;" data-darkreader-inline-fill="">temperature.value</text></g><g id="x axis" transform="translate(0,560)" fill="none" font-size="10" font-family="sans-serif" text-anchor="middle"><path class="domain" stroke="currentColor" d="M0,6V0H745V6" data-darkreader-inline-stroke="" style="--darkreader-inline-stroke: currentColor;"/><g class="tick" opacity="1" transform="translate(372.5,0)"><line stroke="currentColor" y2="6" data-darkreader-inline-stroke="" style="--darkreader-inline-stroke: currentColor;"/><text fill="currentColor" y="9" dy="0.71em" data-darkreader-inline-fill="" style="--darkreader-inline-fill: currentColor;"/></g><text x="745" dy="-5" text-anchor="end" style="font-family: Arial, sans-serif; font-size: 12px; fill: rgb(123, 123, 123); font-weight: bold; --darkreader-inline-fill: #8d8475;" data-darkreader-inline-fill=""/></g><g id="shapes"><g transform="translate(9.867549668874176 ,0)" style="fill: rgb(31, 119, 180); --darkreader-inline-fill: #409dde;" data-darkreader-inline-fill=""><path d="M362.6324503311258,585.4545454545454C362.6324503311258,560,457.04772506385194,560,457.04772506385194,534.5454545454546C457.04772506385194,509.0909090909091,725.2649006622516,509.0909090909091,725.2649006622516,483.6363636363636C725.2649006622516,458.18181818181813,566.0496293198925,458.18181818181813,566.0496293198925,432.7272727272727C566.0496293198925,407.27272727272725,469.3358553895531,407.27272727272725,469.3358553895531,381.81818181818187C469.3358553895531,356.3636363636364,501.0728250796736,356.3636363636364,501.0728250796736,330.9090909090909C501.0728250796736,305.45454545454544,478.0878331035418,305.45454545454544,478.0878331035418,280C478.0878331035418,254.54545454545453,413.2878364939087,254.54545454545453,413.2878364939087,229.09090909090907C413.2878364939087,203.63636363636363,379.1639637908821,203.63636363636363,379.1639637908821,178.18181818181822C379.1639637908821,152.72727272727275,365.3729686052031,152.72727272727275,365.3729686052031,127.27272727272728C365.3729686052031,101.81818181818181,362.6324503311258,101.81818181818181,362.6324503311258,76.36363636363636C362.6324503311258,50.90909090909089,363.516488484054,50.90909090909089,363.516488484054,25.454545454545432C363.516488484054,0,362.6324503311258,0,362.6324503311258,-25.454545454545432L362.6324503311258,-25.454545454545432C362.6324503311258,0,361.74841217819767,0,361.74841217819767,25.454545454545432C361.74841217819767,50.90909090909089,362.6324503311258,50.90909090909089,362.6324503311258,76.36363636363636C362.6324503311258,101.81818181818181,359.89193205704856,101.81818181818181,359.89193205704856,127.27272727272728C359.89193205704856,152.72727272727275,346.10093687136947,152.72727272727275,346.10093687136947,178.18181818181822C346.10093687136947,203.63636363636363,311.977064168343,203.63636363636363,311.977064168343,229.09090909090907C311.977064168343,254.54545454545453,247.17706755870984,254.54545454545453,247.17706755870984,280C247.17706755870984,305.45454545454544,224.192075582578,305.45454545454544,224.192075582578,330.9090909090909C224.192075582578,356.3636363636364,255.92904527269852,356.3636363636364,255.92904527269852,381.81818181818187C255.92904527269852,407.27272727272725,159.21527134235924,407.27272727272725,159.21527134235924,432.7272727272727C159.21527134235924,458.18181818181813,0,458.18181818181813,0,483.6363636363636C0,509.0909090909091,268.2171755983997,509.0909090909091,268.2171755983997,534.5454545454546C268.2171755983997,560,362.6324503311258,560,362.6324503311258,585.4545454545454Z" style="stroke: none; --darkreader-inline-stroke: none;" data-darkreader-inline-stroke=""/></g></g></g></svg>