<svg xmlns="http://www.w3.org/2000/svg" width="805" height="600"><rect width="805" height="600" x="0" y="0" fill="#FFFFFF" id="background" style="--darkreader-inline-fill: #141412;" data-darkreader-inline-fill=""/><g transform="translate(50,10)" id="viz"><g id="y axis" fill="none" font-size="10" font-family="sans-serif" text-anchor="end"><path class="domain" stroke="currentColor" d="M-6,560H0V0H-6" style="--darkreader-inline-stroke: currentColor;" data-darkreader-inline-stroke=""/><g class="tick" opacity="1" transform="translate(0,560)"><line stroke="currentColor" x2="-6" style="--darkreader-inline-stroke: currentColor;" data-darkreader-inline-stroke=""/><text fill="currentColor" x="-9" dy="0.32em" style="--darkreader-inline-fill: currentColor;" data-darkreader-inline-fill="">0</text></g><g class="tick" opacity="1" transform="translate(0,504)"><line stroke="currentColor" x2="-6" style="--darkreader-inline-stroke: currentColor;" data-darkreader-inline-stroke=""/><text fill="currentColor" x="-9" dy="0.32em" style="--darkreader-inline-fill: currentColor;" data-darkreader-inline-fill="">500</text></g><g class="tick" opacity="1" transform="translate(0,448)"><line stroke="currentColor" x2="-6" style="--darkreader-inline-stroke: currentColor;" data-darkreader-inline-stroke=""/><text fill="currentColor" x="-9" dy="0.32em" style="--darkreader-inline-fill: currentColor;" data-darkreader-inline-fill="">1,000</text></g><g class="tick" opacity="1" transform="translate(0,392)"><line stroke="currentColor" x2="-6" style="--darkreader-inline-stroke: currentColor;" data-darkreader-inline-stroke=""/><text fill="currentColor" x="-9" dy="0.32em" style="--darkreader-inline-fill: currentColor;" data-darkreader-inline-fill="">1,500</text></g><g class="tick" opacity="1" transform="translate(0,336)"><line stroke="currentColor" x2="-6" style="--darkreader-inline-stroke: currentColor;" data-darkreader-inline-stroke=""/><text fill="currentColor" x="-9" dy="0.32em" style="--darkreader-inline-fill: currentColor;" data-darkreader-inline-fill="">2,000</text></g><g class="tick" opacity="1" transform="translate(0,280)"><line stroke="currentColor" x2="-6" style="--darkreader-inline-stroke: currentColor;" data-darkreader-inline-stroke=""/><text fill="currentColor" x="-9" dy="0.32em" style="--darkreader-inline-fill: currentColor;" data-darkreader-inline-fill="">2,500</text></g><g class="tick" opacity="1" transform="translate(0,224)"><line stroke="currentColor" x2="-6" style="--darkreader-inline-stroke: currentColor;" data-darkreader-inline-stroke=""/><text fill="currentColor" x="-9" dy="0.32em" style="--darkreader-inline-fill: currentColor;" data-darkreader-inline-fill="">3,000</text></g><g class="tick" opacity="1" transform="translate(0,168.00000000000003)"><line stroke="currentColor" x2="-6" style="--darkreader-inline-stroke: currentColor;" data-darkreader-inline-stroke=""/><text fill="currentColor" x="-9" dy="0.32em" style="--darkreader-inline-fill: currentColor;" data-darkreader-inline-fill="">3,500</text></g><g class="tick" opacity="1" transform="translate(0,111.99999999999997)"><line stroke="currentColor" x2="-6" style="--darkreader-inline-stroke: currentColor;" data-darkreader-inline-stroke=""/><text fill="currentColor" x="-9" dy="0.32em" style="--darkreader-inline-fill: currentColor;" data-darkreader-inline-fill="">4,000</text></g><g class="tick" opacity="1" transform="translate(0,55.999999999999986)"><line stroke="currentColor" x2="-6" style="--darkreader-inline-stroke: currentColor;" data-darkreader-inline-stroke=""/><text fill="currentColor" x="-9" dy="0.32em" style="--darkreader-inline-fill: currentColor;" data-darkreader-inline-fill="">4,500</text></g><g class="tick" opacity="1" transform="translate(0,0)"><line stroke="currentColor" x2="-6" style="--darkreader-inline-stroke: currentColor;" data-darkreader-inline-stroke=""/><text fill="currentColor" x="-9" dy="0.32em" style="--darkreader-inline-fill: currentColor;" data-darkreader-inline-fill="">5,000</text></g><text x="4" text-anchor="start" dominant-baseline="hanging" style="font-family: Arial, sans-serif; font-size: 12px; fill: rgb(123, 123, 123); font-weight: bold; --darkreader-inline-fill: #b9ae9d;" data-darkreader-inline-fill="">electrical_conductivity.value</text></g><g id="x axis" transform="translate(0,560)" fill="none" font-size="10" font-family="sans-serif" text-anchor="middle"><path class="domain" stroke="currentColor" d="M0,6V0H745V6" style="--darkreader-inline-stroke: currentColor;" data-darkreader-inline-stroke=""/><g class="tick" opacity="1" transform="translate(372.5,0)"><line stroke="currentColor" y2="6" style="--darkreader-inline-stroke: currentColor;" data-darkreader-inline-stroke=""/><text fill="currentColor" y="9" dy="0.71em" style="--darkreader-inline-fill: currentColor;" data-darkreader-inline-fill=""/></g><text x="745" dy="-5" text-anchor="end" style="font-family: Arial, sans-serif; font-size: 12px; fill: rgb(123, 123, 123); font-weight: bold; --darkreader-inline-fill: #b9ae9d;" data-darkreader-inline-fill=""/></g><g id="shapes"><g transform="translate(9.867549668874176 ,0)" style="fill: rgb(31, 119, 180); --darkreader-inline-fill: #a9bdc3;" data-darkreader-inline-fill=""><path style="stroke: none; --darkreader-inline-stroke: none;" d="M362.6324503311258,588C362.6324503311258,560,482.35518470065364,560,482.35518470065364,532C482.35518470065364,504,725.2649006622516,504,725.2649006622516,476C725.2649006622516,448,376.61316233638587,448,376.61316233638587,420C376.61316233638587,392,366.59159001403134,392,366.59159001403134,364C366.59159001403134,336,366.9627593593037,336,366.9627593593037,308C366.9627593593037,280,365.76676924675934,280,365.76676924675934,251.99999999999997C365.76676924675934,224,363.6222352518522,224,363.6222352518522,196C363.6222352518522,168,362.92113759967106,168,362.92113759967106,140C362.92113759967106,112,362.92113759967106,112,362.92113759967106,84.00000000000001C362.92113759967106,56.00000000000002,362.67369136948946,56.00000000000002,362.67369136948946,28.000000000000025C362.67369136948946,0,362.6324503311258,0,362.6324503311258,-28.000000000000025L362.6324503311258,-28.000000000000025C362.6324503311258,0,362.5912092927622,0,362.5912092927622,28.000000000000025C362.5912092927622,56.00000000000002,362.3437630625806,56.00000000000002,362.3437630625806,84.00000000000001C362.3437630625806,112,362.3437630625806,112,362.3437630625806,140C362.3437630625806,168,361.64266541039945,168,361.64266541039945,196C361.64266541039945,224,359.4981314154923,224,359.4981314154923,251.99999999999997C359.4981314154923,280,358.3021413029479,280,358.3021413029479,308C358.3021413029479,336,358.6733106482203,336,358.6733106482203,364C358.6733106482203,392,348.6517383258658,392,348.6517383258658,420C348.6517383258658,448,0,448,0,476C0,504,242.90971596159798,504,242.90971596159798,532C242.90971596159798,560,362.6324503311258,560,362.6324503311258,588Z" data-darkreader-inline-stroke=""/></g></g></g></svg>