<svg xmlns="http://www.w3.org/2000/svg" width="805" height="600"><rect width="805" height="600" x="0" y="0" fill="#FFFFFF" id="background" data-darkreader-inline-fill="" style="--darkreader-inline-fill: #000000;"/><g transform="translate(50,10)" id="viz"><g id="y axis" fill="none" font-size="10" font-family="sans-serif" text-anchor="end"><path class="domain" stroke="currentColor" d="M-6,560H0V0H-6" data-darkreader-inline-stroke="" style="--darkreader-inline-stroke: currentColor;"/><g class="tick" opacity="1" transform="translate(0,560)"><line stroke="currentColor" x2="-6" data-darkreader-inline-stroke="" style="--darkreader-inline-stroke: currentColor;"/><text fill="currentColor" x="-9" dy="0.32em" data-darkreader-inline-fill="" style="--darkreader-inline-fill: currentColor;">−100</text></g><g class="tick" opacity="1" transform="translate(0,509.09090909090907)"><line stroke="currentColor" x2="-6" data-darkreader-inline-stroke="" style="--darkreader-inline-stroke: currentColor;"/><text fill="currentColor" x="-9" dy="0.32em" data-darkreader-inline-fill="" style="--darkreader-inline-fill: currentColor;">0</text></g><g class="tick" opacity="1" transform="translate(0,458.18181818181813)"><line stroke="currentColor" x2="-6" data-darkreader-inline-stroke="" style="--darkreader-inline-stroke: currentColor;"/><text fill="currentColor" x="-9" dy="0.32em" data-darkreader-inline-fill="" style="--darkreader-inline-fill: currentColor;">100</text></g><g class="tick" opacity="1" transform="translate(0,407.2727272727273)"><line stroke="currentColor" x2="-6" data-darkreader-inline-stroke="" style="--darkreader-inline-stroke: currentColor;"/><text fill="currentColor" x="-9" dy="0.32em" data-darkreader-inline-fill="" style="--darkreader-inline-fill: currentColor;">200</text></g><g class="tick" opacity="1" transform="translate(0,356.3636363636364)"><line stroke="currentColor" x2="-6" data-darkreader-inline-stroke="" style="--darkreader-inline-stroke: currentColor;"/><text fill="currentColor" x="-9" dy="0.32em" data-darkreader-inline-fill="" style="--darkreader-inline-fill: currentColor;">300</text></g><g class="tick" opacity="1" transform="translate(0,305.45454545454544)"><line stroke="currentColor" x2="-6" data-darkreader-inline-stroke="" style="--darkreader-inline-stroke: currentColor;"/><text fill="currentColor" x="-9" dy="0.32em" data-darkreader-inline-fill="" style="--darkreader-inline-fill: currentColor;">400</text></g><g class="tick" opacity="1" transform="translate(0,254.54545454545456)"><line stroke="currentColor" x2="-6" data-darkreader-inline-stroke="" style="--darkreader-inline-stroke: currentColor;"/><text fill="currentColor" x="-9" dy="0.32em" data-darkreader-inline-fill="" style="--darkreader-inline-fill: currentColor;">500</text></g><g class="tick" opacity="1" transform="translate(0,203.63636363636365)"><line stroke="currentColor" x2="-6" data-darkreader-inline-stroke="" style="--darkreader-inline-stroke: currentColor;"/><text fill="currentColor" x="-9" dy="0.32em" data-darkreader-inline-fill="" style="--darkreader-inline-fill: currentColor;">600</text></g><g class="tick" opacity="1" transform="translate(0,152.72727272727272)"><line stroke="currentColor" x2="-6" data-darkreader-inline-stroke="" style="--darkreader-inline-stroke: currentColor;"/><text fill="currentColor" x="-9" dy="0.32em" data-darkreader-inline-fill="" style="--darkreader-inline-fill: currentColor;">700</text></g><g class="tick" opacity="1" transform="translate(0,101.81818181818178)"><line stroke="currentColor" x2="-6" data-darkreader-inline-stroke="" style="--darkreader-inline-stroke: currentColor;"/><text fill="currentColor" x="-9" dy="0.32em" data-darkreader-inline-fill="" style="--darkreader-inline-fill: currentColor;">800</text></g><g class="tick" opacity="1" transform="translate(0,50.90909090909093)"><line stroke="currentColor" x2="-6" data-darkreader-inline-stroke="" style="--darkreader-inline-stroke: currentColor;"/><text fill="currentColor" x="-9" dy="0.32em" data-darkreader-inline-fill="" style="--darkreader-inline-fill: currentColor;">900</text></g><g class="tick" opacity="1" transform="translate(0,0)"><line stroke="currentColor" x2="-6" data-darkreader-inline-stroke="" style="--darkreader-inline-stroke: currentColor;"/><text fill="currentColor" x="-9" dy="0.32em" data-darkreader-inline-fill="" style="--darkreader-inline-fill: currentColor;">1,000</text></g><text x="4" text-anchor="start" dominant-baseline="hanging" style="font-family: Arial, sans-serif; font-size: 12px; fill: rgb(123, 123, 123); font-weight: bold; --darkreader-inline-fill: #8d8475;" data-darkreader-inline-fill="">water_depth.value</text></g><g id="x axis" transform="translate(0,560)" fill="none" font-size="10" font-family="sans-serif" text-anchor="middle"><path class="domain" stroke="currentColor" d="M0,6V0H745V6" data-darkreader-inline-stroke="" style="--darkreader-inline-stroke: currentColor;"/><g class="tick" opacity="1" transform="translate(372.5,0)"><line stroke="currentColor" y2="6" data-darkreader-inline-stroke="" style="--darkreader-inline-stroke: currentColor;"/><text fill="currentColor" y="9" dy="0.71em" data-darkreader-inline-fill="" style="--darkreader-inline-fill: currentColor;"/></g><text x="745" dy="-5" text-anchor="end" style="font-family: Arial, sans-serif; font-size: 12px; fill: rgb(123, 123, 123); font-weight: bold; --darkreader-inline-fill: #8d8475;" data-darkreader-inline-fill=""/></g><g id="shapes"><g transform="translate(9.867549668874176 ,0)" style="fill: rgb(31, 119, 180); --darkreader-inline-fill: #409dde;" data-darkreader-inline-fill=""><path d="M362.6324503311258,585.4545454545454C362.6324503311258,560,363.07610526347776,560,363.07610526347776,534.5454545454546C363.07610526347776,509.0909090909091,362.7433640642138,509.0909090909091,362.7433640642138,483.6363636363636C362.7433640642138,458.18181818181813,362.6324503311258,458.18181818181813,362.6324503311258,432.7272727272727C362.6324503311258,407.27272727272725,362.6324503311258,407.27272727272725,362.6324503311258,381.81818181818187C362.6324503311258,356.3636363636364,362.6324503311258,356.3636363636364,362.6324503311258,330.9090909090909C362.6324503311258,305.45454545454544,364.1852425943575,305.45454545454544,364.1852425943575,280C364.1852425943575,254.54545454545453,611.9665223128878,254.54545454545453,611.9665223128878,229.09090909090907C611.9665223128878,203.63636363636363,725.2649006622516,203.63636363636363,725.2649006622516,178.18181818181822C725.2649006622516,152.72727272727275,362.6324503311258,152.72727272727275,362.6324503311258,127.27272727272728C362.6324503311258,101.81818181818181,395.2410878589897,101.81818181818181,395.2410878589897,76.36363636363636C395.2410878589897,50.90909090909089,400.89768824647626,50.90909090909089,400.89768824647626,25.454545454545432C400.89768824647626,0,362.6324503311258,0,362.6324503311258,-25.454545454545432L362.6324503311258,-25.454545454545432C362.6324503311258,0,324.3672124157753,0,324.3672124157753,25.454545454545432C324.3672124157753,50.90909090909089,330.02381280326193,50.90909090909089,330.02381280326193,76.36363636363636C330.02381280326193,101.81818181818181,362.6324503311258,101.81818181818181,362.6324503311258,127.27272727272728C362.6324503311258,152.72727272727275,0,152.72727272727275,0,178.18181818181822C0,203.63636363636363,113.29837834936383,203.63636363636363,113.29837834936383,229.09090909090907C113.29837834936383,254.54545454545453,361.07965806789423,254.54545454545453,361.07965806789423,280C361.07965806789423,305.45454545454544,362.6324503311258,305.45454545454544,362.6324503311258,330.9090909090909C362.6324503311258,356.3636363636364,362.6324503311258,356.3636363636364,362.6324503311258,381.81818181818187C362.6324503311258,407.27272727272725,362.6324503311258,407.27272727272725,362.6324503311258,432.7272727272727C362.6324503311258,458.18181818181813,362.52153659803787,458.18181818181813,362.52153659803787,483.6363636363636C362.52153659803787,509.0909090909091,362.18879539877395,509.0909090909091,362.18879539877395,534.5454545454546C362.18879539877395,560,362.6324503311258,560,362.6324503311258,585.4545454545454Z" style="stroke: none; --darkreader-inline-stroke: none;" data-darkreader-inline-stroke=""/></g></g></g></svg>